<svg width="1026" height="150" viewBox="0 0 1026 150" fill="none" xmlns="http://www.w3.org/2000/svg">
<rect width="150" height="150" rx="35" fill="#043AF9"/>
<path d="M84.285 35.6605C84.285 30.1208 79.9013 25.6295 74.4944 25.6295C69.0877 25.6295 64.7049 30.1204 64.7049 35.6605C64.7049 41.2005 69.0877 45.6915 74.4944 45.6915C79.9013 45.6915 84.285 41.2002 84.285 35.6605ZM88.8036 35.6605C88.8036 43.757 82.3969 50.321 74.4944 50.321C66.5921 50.321 60.1863 43.7572 60.1863 35.6605C60.1863 27.5638 66.5921 21 74.4944 21C82.3969 21 88.8036 27.5639 88.8036 35.6605Z" fill="white" stroke="white"/>
<path d="M60.7141 80.6053V57.2644C60.7141 53.4295 63.7489 50.3202 67.492 50.3202H80.6715C84.4145 50.3202 87.4493 53.4295 87.4493 57.2644V80.6053C87.4493 81.8837 88.4608 82.92 89.7086 82.92C90.9564 82.92 91.9679 81.8837 91.9679 80.6053V57.2644C91.9679 50.8728 86.91 45.6907 80.6715 45.6907H67.492C61.2534 45.6907 56.1955 50.8728 56.1955 57.2644V80.6053C56.1955 81.8837 57.207 82.92 58.4548 82.92C59.7026 82.92 60.7141 81.8837 60.7141 80.6053ZM62.4111 87.5736H42.1356L32.7853 77.9948C29.576 74.7067 24.3713 74.7067 21.162 77.9949C17.9469 81.2889 17.9469 86.6214 21.1564 89.9095L32.9204 101.962C34.4939 103.576 36.6042 104.439 38.7906 104.422C38.8039 104.423 56.2376 104.425 56.2376 104.425V126.184C56.2376 127.462 57.2491 128.498 58.4969 128.498C59.7446 128.498 60.7561 127.462 60.7561 126.184V102.11C60.7561 100.832 59.7446 99.7955 58.4969 99.7955H38.8538C37.7799 99.8056 36.8286 99.42 36.1163 98.6895L24.3515 86.6358C22.9068 85.1557 22.9068 82.7544 24.3515 81.2741C25.8019 79.7881 28.1455 79.7881 29.5903 81.2684L39.6024 91.5252C40.0261 91.9592 40.6007 92.2031 41.1999 92.2031H62.3258C62.3716 92.2058 62.4302 92.2092 62.5072 92.2135H64.4739C66.5236 92.2135 68.186 93.9167 68.186 96.0167V126.257C68.186 127.535 69.1974 128.571 70.4452 128.571C71.693 128.571 72.7045 127.535 72.7045 126.257V96.0167C72.7045 91.3599 69.0192 87.584 64.4739 87.584H62.5926C62.5468 87.5813 62.4881 87.5779 62.4111 87.5736ZM109.175 92.2031C109.774 92.2031 110.348 91.9593 110.772 91.5252L120.784 81.2685C122.229 79.7882 124.573 79.7882 126.017 81.2684C127.468 82.7544 127.468 85.1555 126.023 86.6358L114.259 98.6887C113.546 99.4199 112.595 99.8055 111.596 99.7922C111.161 99.8229 111.161 99.8229 111.081 99.8451C111.149 99.8255 111.149 99.8255 111.542 99.7955H91.8775C90.6297 99.7955 89.6182 100.832 89.6182 102.11V126.257C89.6182 127.535 90.6297 128.571 91.8775 128.571C93.1253 128.571 94.1368 127.535 94.1368 126.257V104.425H111.542C113.752 104.446 115.874 103.583 117.455 101.962L129.218 89.9095C132.427 86.6214 132.427 81.2889 129.218 78.0007C126.003 74.7067 120.798 74.7067 117.589 77.9949L108.239 87.5736H87.9633L87.7819 87.584H85.9006C81.3554 87.584 77.67 91.3598 77.67 96.0167V126.257C77.67 127.535 78.6815 128.571 79.9293 128.571C81.177 128.571 82.1885 127.535 82.1885 126.257V96.0167C82.1885 93.9167 83.8509 92.2135 85.9006 92.2135H87.8673L88.0487 92.2031H109.175Z" fill="white" stroke="white"/>
<path d="M221.045 30.9091V124H204.182V30.9091H221.045ZM255.034 83.0909V124H238.58V54.1818H254.307V66.0455H255.125C256.731 62.1364 259.292 59.0303 262.807 56.7273C266.352 54.4242 270.731 53.2727 275.943 53.2727C280.761 53.2727 284.958 54.303 288.534 56.3636C292.14 58.4242 294.928 61.4091 296.898 65.3182C298.898 69.2273 299.883 73.9697 299.852 79.5455V124H283.398V82.0909C283.398 77.4242 282.186 73.7727 279.761 71.1364C277.367 68.5 274.049 67.1818 269.807 67.1818C266.928 67.1818 264.367 67.8182 262.125 69.0909C259.913 70.3333 258.17 72.1364 256.898 74.5C255.655 76.8636 255.034 79.7273 255.034 83.0909ZM342.489 125.227C337.004 125.227 332.095 123.818 327.761 121C323.428 118.182 320.004 114.091 317.489 108.727C314.973 103.364 313.716 96.8485 313.716 89.1818C313.716 81.4242 314.989 74.8788 317.534 69.5455C320.11 64.1818 323.58 60.1364 327.943 57.4091C332.307 54.6515 337.17 53.2727 342.534 53.2727C346.625 53.2727 349.989 53.9697 352.625 55.3636C355.261 56.7273 357.352 58.3788 358.898 60.3182C360.443 62.2273 361.64 64.0303 362.489 65.7273H363.17V30.9091H379.67V124H363.489V113H362.489C361.64 114.697 360.413 116.5 358.807 118.409C357.201 120.288 355.08 121.894 352.443 123.227C349.807 124.561 346.489 125.227 342.489 125.227ZM347.08 111.727C350.564 111.727 353.534 110.788 355.989 108.909C358.443 107 360.307 104.348 361.58 100.955C362.852 97.5606 363.489 93.6061 363.489 89.0909C363.489 84.5758 362.852 80.6515 361.58 77.3182C360.337 73.9848 358.489 71.3939 356.034 69.5455C353.61 67.697 350.625 66.7727 347.08 66.7727C343.413 66.7727 340.352 67.7273 337.898 69.6364C335.443 71.5455 333.595 74.1818 332.352 77.5455C331.11 80.9091 330.489 84.7576 330.489 89.0909C330.489 93.4545 331.11 97.3485 332.352 100.773C333.625 104.167 335.489 106.848 337.943 108.818C340.428 110.758 343.473 111.727 347.08 111.727ZM397.205 124V54.1818H413.659V124H397.205ZM405.477 44.2727C402.871 44.2727 400.629 43.4091 398.75 41.6818C396.871 39.9242 395.932 37.8182 395.932 35.3636C395.932 32.8788 396.871 30.7727 398.75 29.0454C400.629 27.2879 402.871 26.4091 405.477 26.4091C408.114 26.4091 410.356 27.2879 412.205 29.0454C414.083 30.7727 415.023 32.8788 415.023 35.3636C415.023 37.8182 414.083 39.9242 412.205 41.6818C410.356 43.4091 408.114 44.2727 405.477 44.2727ZM450.67 125.409C446.246 125.409 442.261 124.621 438.716 123.045C435.201 121.439 432.413 119.076 430.352 115.955C428.322 112.833 427.307 108.985 427.307 104.409C427.307 100.47 428.034 97.2121 429.489 94.6364C430.943 92.0606 432.928 90 435.443 88.4545C437.958 86.9091 440.792 85.7424 443.943 84.9545C447.125 84.1364 450.413 83.5455 453.807 83.1818C457.898 82.7576 461.216 82.3788 463.761 82.0455C466.307 81.6818 468.155 81.1364 469.307 80.4091C470.489 79.6515 471.08 78.4848 471.08 76.9091V76.6364C471.08 73.2121 470.064 70.5606 468.034 68.6818C466.004 66.803 463.08 65.8636 459.261 65.8636C455.231 65.8636 452.034 66.7424 449.67 68.5C447.337 70.2576 445.761 72.3333 444.943 74.7273L429.58 72.5455C430.792 68.303 432.792 64.7576 435.58 61.9091C438.367 59.0303 441.777 56.8788 445.807 55.4545C449.837 54 454.292 53.2727 459.17 53.2727C462.534 53.2727 465.883 53.6667 469.216 54.4545C472.549 55.2424 475.595 56.5455 478.352 58.3636C481.11 60.1515 483.322 62.5909 484.989 65.6818C486.686 68.7727 487.534 72.6364 487.534 77.2727V124H471.716V114.409H471.17C470.17 116.348 468.761 118.167 466.943 119.864C465.155 121.53 462.898 122.879 460.17 123.909C457.473 124.909 454.307 125.409 450.67 125.409ZM454.943 113.318C458.246 113.318 461.11 112.667 463.534 111.364C465.958 110.03 467.822 108.273 469.125 106.091C470.458 103.909 471.125 101.53 471.125 98.9545V90.7273C470.61 91.1515 469.731 91.5455 468.489 91.9091C467.277 92.2727 465.913 92.5909 464.398 92.8636C462.883 93.1364 461.383 93.3788 459.898 93.5909C458.413 93.803 457.125 93.9848 456.034 94.1364C453.58 94.4697 451.383 95.0152 449.443 95.7727C447.504 96.5303 445.973 97.5909 444.852 98.9545C443.731 100.288 443.17 102.015 443.17 104.136C443.17 107.167 444.277 109.455 446.489 111C448.701 112.545 451.519 113.318 454.943 113.318ZM504.807 124V30.9091H521.67V109.864H562.67V124H504.807ZM576.58 124V54.1818H593.034V124H576.58ZM584.852 44.2727C582.246 44.2727 580.004 43.4091 578.125 41.6818C576.246 39.9242 575.307 37.8182 575.307 35.3636C575.307 32.8788 576.246 30.7727 578.125 29.0454C580.004 27.2879 582.246 26.4091 584.852 26.4091C587.489 26.4091 589.731 27.2879 591.58 29.0454C593.458 30.7727 594.398 32.8788 594.398 35.3636C594.398 37.8182 593.458 39.9242 591.58 41.6818C589.731 43.4091 587.489 44.2727 584.852 44.2727ZM645.318 54.1818V66.9091H604.045V54.1818H645.318ZM614.364 124V47.5909C614.364 42.8939 615.333 38.9848 617.273 35.8636C619.242 32.7424 621.879 30.4091 625.182 28.8636C628.485 27.3182 632.152 26.5454 636.182 26.5454C639.03 26.5454 641.561 26.7727 643.773 27.2273C645.985 27.6818 647.621 28.0909 648.682 28.4545L645.409 41.1818C644.712 40.9697 643.833 40.7576 642.773 40.5454C641.712 40.303 640.53 40.1818 639.227 40.1818C636.167 40.1818 634 40.9242 632.727 42.4091C631.485 43.8636 630.864 45.9545 630.864 48.6818V124H614.364ZM686.489 125.364C679.489 125.364 673.443 123.909 668.352 121C663.292 118.061 659.398 113.909 656.67 108.545C653.943 103.152 652.58 96.803 652.58 89.5C652.58 82.3182 653.943 76.0152 656.67 70.5909C659.428 65.1364 663.277 60.8939 668.216 57.8636C673.155 54.803 678.958 53.2727 685.625 53.2727C689.928 53.2727 693.989 53.9697 697.807 55.3636C701.655 56.7273 705.049 58.8485 707.989 61.7273C710.958 64.6061 713.292 68.2727 714.989 72.7273C716.686 77.1515 717.534 82.4242 717.534 88.5455V93.5909H660.307V82.5H701.761C701.731 79.3485 701.049 76.5455 699.716 74.0909C698.383 71.6061 696.519 69.6515 694.125 68.2273C691.761 66.803 689.004 66.0909 685.852 66.0909C682.489 66.0909 679.534 66.9091 676.989 68.5455C674.443 70.1515 672.458 72.2727 671.034 74.9091C669.64 77.5151 668.928 80.3788 668.898 83.5V93.1818C668.898 97.2424 669.64 100.727 671.125 103.636C672.61 106.515 674.686 108.727 677.352 110.273C680.019 111.788 683.14 112.545 686.716 112.545C689.11 112.545 691.277 112.212 693.216 111.545C695.155 110.848 696.837 109.833 698.261 108.5C699.686 107.167 700.761 105.515 701.489 103.545L716.852 105.273C715.883 109.333 714.034 112.879 711.307 115.909C708.61 118.909 705.155 121.242 700.943 122.909C696.731 124.545 691.913 125.364 686.489 125.364ZM811.864 62.3182H794.864C794.379 59.5303 793.485 57.0606 792.182 54.9091C790.879 52.7273 789.258 50.8788 787.318 49.3636C785.379 47.8485 783.167 46.7121 780.682 45.9545C778.227 45.1667 775.576 44.7727 772.727 44.7727C767.667 44.7727 763.182 46.0455 759.273 48.5909C755.364 51.1061 752.303 54.803 750.091 59.6818C747.879 64.5303 746.773 70.4545 746.773 77.4545C746.773 84.5758 747.879 90.5758 750.091 95.4545C752.333 100.303 755.394 103.97 759.273 106.455C763.182 108.909 767.652 110.136 772.682 110.136C775.47 110.136 778.076 109.773 780.5 109.045C782.955 108.288 785.152 107.182 787.091 105.727C789.061 104.273 790.712 102.485 792.045 100.364C793.409 98.2424 794.348 95.8182 794.864 93.0909L811.864 93.1818C811.227 97.6061 809.848 101.758 807.727 105.636C805.636 109.515 802.894 112.939 799.5 115.909C796.106 118.848 792.136 121.152 787.591 122.818C783.045 124.455 778 125.273 772.455 125.273C764.273 125.273 756.97 123.379 750.545 119.591C744.121 115.803 739.061 110.333 735.364 103.182C731.667 96.0303 729.818 87.4545 729.818 77.4545C729.818 67.4242 731.682 58.8485 735.409 51.7273C739.136 44.5758 744.212 39.1061 750.636 35.3182C757.061 31.5303 764.333 29.6364 772.455 29.6364C777.636 29.6364 782.455 30.3636 786.909 31.8182C791.364 33.2727 795.333 35.4091 798.818 38.2273C802.303 41.0151 805.167 44.4394 807.409 48.5C809.682 52.5303 811.167 57.1364 811.864 62.3182ZM846.67 125.409C842.246 125.409 838.261 124.621 834.716 123.045C831.201 121.439 828.413 119.076 826.352 115.955C824.322 112.833 823.307 108.985 823.307 104.409C823.307 100.47 824.034 97.2121 825.489 94.6364C826.943 92.0606 828.928 90 831.443 88.4545C833.958 86.9091 836.792 85.7424 839.943 84.9545C843.125 84.1364 846.413 83.5455 849.807 83.1818C853.898 82.7576 857.216 82.3788 859.761 82.0455C862.307 81.6818 864.155 81.1364 865.307 80.4091C866.489 79.6515 867.08 78.4848 867.08 76.9091V76.6364C867.08 73.2121 866.064 70.5606 864.034 68.6818C862.004 66.803 859.08 65.8636 855.261 65.8636C851.231 65.8636 848.034 66.7424 845.67 68.5C843.337 70.2576 841.761 72.3333 840.943 74.7273L825.58 72.5455C826.792 68.303 828.792 64.7576 831.58 61.9091C834.367 59.0303 837.777 56.8788 841.807 55.4545C845.837 54 850.292 53.2727 855.17 53.2727C858.534 53.2727 861.883 53.6667 865.216 54.4545C868.549 55.2424 871.595 56.5455 874.352 58.3636C877.11 60.1515 879.322 62.5909 880.989 65.6818C882.686 68.7727 883.534 72.6364 883.534 77.2727V124H867.716V114.409H867.17C866.17 116.348 864.761 118.167 862.943 119.864C861.155 121.53 858.898 122.879 856.17 123.909C853.473 124.909 850.307 125.409 846.67 125.409ZM850.943 113.318C854.246 113.318 857.11 112.667 859.534 111.364C861.958 110.03 863.822 108.273 865.125 106.091C866.458 103.909 867.125 101.53 867.125 98.9545V90.7273C866.61 91.1515 865.731 91.5455 864.489 91.9091C863.277 92.2727 861.913 92.5909 860.398 92.8636C858.883 93.1364 857.383 93.3788 855.898 93.5909C854.413 93.803 853.125 93.9848 852.034 94.1364C849.58 94.4697 847.383 95.0152 845.443 95.7727C843.504 96.5303 841.973 97.5909 840.852 98.9545C839.731 100.288 839.17 102.015 839.17 104.136C839.17 107.167 840.277 109.455 842.489 111C844.701 112.545 847.519 113.318 850.943 113.318ZM900.08 124V54.1818H916.034V65.8182H916.761C918.034 61.7879 920.216 58.6818 923.307 56.5C926.428 54.2879 929.989 53.1818 933.989 53.1818C934.898 53.1818 935.913 53.2273 937.034 53.3182C938.186 53.3788 939.14 53.4848 939.898 53.6364V68.7727C939.201 68.5303 938.095 68.3182 936.58 68.1364C935.095 67.9242 933.655 67.8182 932.261 67.8182C929.261 67.8182 926.564 68.4697 924.17 69.7727C921.807 71.0455 919.943 72.8182 918.58 75.0909C917.216 77.3636 916.534 79.9848 916.534 82.9545V124H900.08ZM978.864 125.364C971.864 125.364 965.818 123.909 960.727 121C955.667 118.061 951.773 113.909 949.045 108.545C946.318 103.152 944.955 96.803 944.955 89.5C944.955 82.3182 946.318 76.0152 949.045 70.5909C951.803 65.1364 955.652 60.8939 960.591 57.8636C965.53 54.803 971.333 53.2727 978 53.2727C982.303 53.2727 986.364 53.9697 990.182 55.3636C994.03 56.7273 997.424 58.8485 1000.36 61.7273C1003.33 64.6061 1005.67 68.2727 1007.36 72.7273C1009.06 77.1515 1009.91 82.4242 1009.91 88.5455V93.5909H952.682V82.5H994.136C994.106 79.3485 993.424 76.5455 992.091 74.0909C990.758 71.6061 988.894 69.6515 986.5 68.2273C984.136 66.803 981.379 66.0909 978.227 66.0909C974.864 66.0909 971.909 66.9091 969.364 68.5455C966.818 70.1515 964.833 72.2727 963.409 74.9091C962.015 77.5151 961.303 80.3788 961.273 83.5V93.1818C961.273 97.2424 962.015 100.727 963.5 103.636C964.985 106.515 967.061 108.727 969.727 110.273C972.394 111.788 975.515 112.545 979.091 112.545C981.485 112.545 983.652 112.212 985.591 111.545C987.53 110.848 989.212 109.833 990.636 108.5C992.061 107.167 993.136 105.515 993.864 103.545L1009.23 105.273C1008.26 109.333 1006.41 112.879 1003.68 115.909C1000.98 118.909 997.53 121.242 993.318 122.909C989.106 124.545 984.288 125.364 978.864 125.364Z" fill="white"/>
</svg>
